<?xml version="1.0" encoding="UTF-8"?> <svg xmlns="http://www.w3.org/2000/svg" width="172.7" height="54.05" viewBox="0 0 172.7 54.05"><defs><style>.a{fill:#fff;}</style></defs><path class="a" d="M58.81,8.78a128.35,128.35,0,0,0-19.19-1.2A110.33,110.33,0,0,0,25.29,26.39a177.25,177.25,0,0,1,23.65-.58c1.19.17,1.34,1.3,0,1.31-6.39.18-20.54,1.26-25.59,2.66C21.13,33.9,17.87,40,17.84,46.41c0,4.81,4.38,6,8.06,5.6a59.12,59.12,0,0,0,21-6.93c.91-.54,1.06.45.47.79-6.3,5.18-15.22,8.08-21.54,8.18-2.25,0-9.25-1.43-10-7.81-.47-4.8,2.44-12.23,4.43-15.48-.72,0-1.65,0-2.05-.64-.6-.32-1.61-1.68-.77-2.48.65-.67,3.49-.72,4.8-1.14A231.24,231.24,0,0,1,35.73,7.64c-7.45.12-17.89,1.93-25.33,6.8C5.71,17.55,2,22.35,1.67,28.61c-.25,4.55,1.46,8.87,4,12.72.68,1-.24,1.45-.91.55A25.89,25.89,0,0,1,0,28.64C-.28,21.79,2.74,17,9.26,12.55c8.27-5.74,17.41-6.81,28.8-7.65a16.55,16.55,0,0,1,2.27-2.21C41.44,1.88,41,5,43.2,5A102.54,102.54,0,0,1,59.43,6.2,2,2,0,0,1,60.91,8C61.06,9.08,59.81,9.1,58.81,8.78Z"></path><path class="a" d="M74.23,48.49a2.79,2.79,0,0,1-2.22-2,3.16,3.16,0,0,1-.12-.82,20.6,20.6,0,0,1,.61-5.38,40.18,40.18,0,0,1-5.88,6.87,3.46,3.46,0,0,1-2.47,1.13h0c-.4,0-.91-.51-1-.62a1.27,1.27,0,0,1-.42-.9c.19-1.27,1.15-3.19,3.13-6.24a30.9,30.9,0,0,0,2.82-4.78c0-.27.25-.61.91-.62s1,.45,1,.89a1.41,1.41,0,0,1-.15.63c-.08.19-.46.89-2.71,4.52a24.16,24.16,0,0,0-2.32,4.53,1.6,1.6,0,0,0,0,.27.48.48,0,0,0,0,.18.38.38,0,0,1,.13-.09,32.15,32.15,0,0,0,4.65-4.92,49.75,49.75,0,0,0,3.45-4.68,13.1,13.1,0,0,1,1-1.93l.07-.12a2.51,2.51,0,0,1,1.6-.51.86.86,0,0,1,.67.29.6.6,0,0,1,.07.47l0,.13a17,17,0,0,0-1.53,4,19.45,19.45,0,0,0-.85,5.52,5.85,5.85,0,0,0,.06,1c.13,1.32.7,1.32.88,1.31a1.25,1.25,0,0,0,.32-.05,7.8,7.8,0,0,0,4-3.19,10,10,0,0,0,2.08-5.26,2.32,2.32,0,0,1-1-.83,1,1,0,0,1-.15-.72,1.67,1.67,0,0,1,1.51-1.18c.78,0,1.31.82,1.65,1.53a5.89,5.89,0,0,0,1.2.06.62.62,0,0,1,.69.56.7.7,0,0,1-.47.63,6.47,6.47,0,0,1-1.11.26A13.08,13.08,0,0,1,80.8,45a10.61,10.61,0,0,1-6.48,3.47Z"></path><path class="a" d="M99.63,48.38a.51.51,0,0,1-.51-.43.87.87,0,0,1,.06-.7A66,66,0,0,0,104.29,38a2,2,0,0,0,.19-.83,1.38,1.38,0,0,0-.1-.3.79.79,0,0,1,0-.62l.07-.14.15-.06a31.18,31.18,0,0,0,2.83-1.65.67.67,0,0,1,.43-.2h0a.76.76,0,0,1,.73.44.77.77,0,0,1-.1.93c-1.38,1.92-2.36,3.4-3,4.47a31.09,31.09,0,0,1,3.74-3.65,18.41,18.41,0,0,1,4-2.8l.14,0a4.33,4.33,0,0,1,2.06.24l.1.08.14.12,0,.27a1.65,1.65,0,0,1-.54,1c-.3.31-.87.66-1.26.42a1.27,1.27,0,0,0-.36,0,3.23,3.23,0,0,0-1.36.46c-3.8,2.18-7.22,5.82-10.17,10.82a1,1,0,0,1-.51.5,10.83,10.83,0,0,0-1.54.77A.58.58,0,0,1,99.63,48.38Z"></path><path class="a" d="M127.09,48.08a1.9,1.9,0,0,1-.73-.13.81.81,0,0,1-.67-.38.72.72,0,0,1,.06-.71c.08-.46.36-1.58,1.12-1.6h.25a.65.65,0,0,1,.55.19c.19.21.16.43.1.89v.1a4.64,4.64,0,0,0,.68,0,7.16,7.16,0,0,0,2.2-.34,5,5,0,0,0,1.85-1,.32.32,0,0,0,.08-.19c0-.33-.3-.64-.57-.93l-.13-.14c-.52-.56-1-1.17-1.44-1.75l-.59-.75A4.89,4.89,0,0,1,128.76,39c-.29-1.92,1.52-4.06,5.54-6.54,3.77-2.3,7.21-3.5,10.21-3.54h.14a1,1,0,0,1,.78.39c.31.59.15.91,0,1.09a3.38,3.38,0,0,1-2,1.29l-.24,0a8.8,8.8,0,0,0-2.5-.5,6.3,6.3,0,0,0-.8.09A16,16,0,0,0,134.83,34c-2.36,1.67-3.46,3.07-3.28,4.19A5.17,5.17,0,0,0,132.4,40a8.16,8.16,0,0,0,.95,1,11.73,11.73,0,0,1,.84.88,3.92,3.92,0,0,1,1.14,2.2c0,.95-.86,1.78-2.85,2.67a10.14,10.14,0,0,1-3.79,1.1,2.1,2.1,0,0,0-.43.08,2.1,2.1,0,0,1-.68.08A3.52,3.52,0,0,1,127.09,48.08Z"></path><path class="a" d="M169.15,2.84A13.45,13.45,0,0,0,160.29,0,19.45,19.45,0,0,0,154,1.25c-6.29,2.31-12.5,7.49-18.44,15.37-1.14,1.49-2.45,3.4-4,5.82l-.22.39c-.41.65-.82,1.34-1.24,2.05-.52.86-1.06,1.78-1.64,2.71l-.4.62c-.85,1.45-1.74,3.06-2.64,4.72a8.69,8.69,0,0,0-2-.3,4.81,4.81,0,0,0-1.78.38c-2,.79-4.37,2.55-7.29,5.4-3.21,3.15-4.75,5.61-4.72,7.53a1.67,1.67,0,0,0,1.93,1.76,1.85,1.85,0,0,0,.56-.12,26.38,26.38,0,0,0,6.6-4.86,51.91,51.91,0,0,0,5-5.28c-1.39,3.94-2.06,6.61-2,8.15a4,4,0,0,0,.62,2.11,1.22,1.22,0,0,0,.92.45,1,1,0,0,0,.46-.12,1.11,1.11,0,0,0,.54-.53.71.71,0,0,0,0-.57.62.62,0,0,0-.44-.32c-.19,0-.34,0-.5-.08s-.06-.06-.06-.05c-.08-2.75,1.06-6.47,3.49-11.36,1-2,2-3.85,3-5.64l.42-.77.36-.58C138,14.9,146.08,6.28,154.54,2.51a14.43,14.43,0,0,1,5.53-1.21,13,13,0,0,1,7.62,2.2C169.85,5,170.92,6.7,171,8.85c.05,3.39-2.62,6.72-7.94,9.9l-.09.05,0,.09a1.46,1.46,0,0,0-.23,1.48,1.3,1.3,0,0,0,1.19.52h0l.15,0a17.94,17.94,0,0,0,6.66-5.18,9.5,9.5,0,0,0,2-5.89A9,9,0,0,0,169.15,2.84ZM123.31,35.89a47.45,47.45,0,0,1-9.86,9,.86.86,0,0,1-.42.15c-.08,0-.24,0-.25-.45a1.85,1.85,0,0,1,.15-.71,18.46,18.46,0,0,1,3.94-5.56c2.13-2.17,3.63-3.26,4.85-3.56a4.1,4.1,0,0,1,.94-.12h0c1,0,1,.34,1,.47A1.27,1.27,0,0,1,123.31,35.89Z"></path><path class="a" d="M106.51,3.73A13.44,13.44,0,0,0,97.65.9a19.66,19.66,0,0,0-6.32,1.25C85,4.47,78.83,9.64,72.89,17.52c-1.14,1.5-2.45,3.39-4,5.82l-.23.39q-.6,1-1.23,2c-.52.88-1.07,1.78-1.65,2.72l-.39.62c-.85,1.45-1.74,3.06-2.65,4.72a8.54,8.54,0,0,0-2-.3,4.54,4.54,0,0,0-1.78.38c-2,.79-4.37,2.55-7.29,5.39-3.21,3.15-4.76,5.62-4.73,7.54a1.68,1.68,0,0,0,1.94,1.76,1.85,1.85,0,0,0,.56-.12A25.94,25.94,0,0,0,56,43.62a52,52,0,0,0,5-5.28C59.65,42.28,59,45,59,46.49a3.88,3.88,0,0,0,.63,2.11,1.19,1.19,0,0,0,.91.45.89.89,0,0,0,.45-.12,1.12,1.12,0,0,0,.55-.52.75.75,0,0,0,0-.58.6.6,0,0,0-.43-.32c-.19,0-.34,0-.5-.08s-.06-.06-.06,0C60.47,44.63,61.61,40.91,64,36c1-2,2-3.85,3-5.64l.42-.77.36-.58C75.33,15.8,83.44,7.18,91.9,3.41A14.44,14.44,0,0,1,97.44,2.2a13,13,0,0,1,7.61,2.2,6.4,6.4,0,0,1,3.26,5.35c0,3.39-2.62,6.72-7.94,9.9l-.09.05-.06.09a1.48,1.48,0,0,0-.22,1.48,1.32,1.32,0,0,0,1.19.52h0l.16,0A17.83,17.83,0,0,0,108,16.57a9.43,9.43,0,0,0,2-5.89A8.94,8.94,0,0,0,106.51,3.73ZM60.67,36.79a47.71,47.71,0,0,1-9.86,9,.89.89,0,0,1-.42.15c-.08,0-.25,0-.25-.45a1.85,1.85,0,0,1,.15-.71,18.26,18.26,0,0,1,3.93-5.55c2.14-2.18,3.63-3.28,4.86-3.57a3.56,3.56,0,0,1,.94-.12h0c1,0,1,.34,1,.47A1.27,1.27,0,0,1,60.67,36.79Z"></path><path class="a" d="M100.75,32.61a.78.78,0,0,0-.62-.28,2.15,2.15,0,0,0-1,.42l-.35.55a9.4,9.4,0,0,0-2-.31,4.81,4.81,0,0,0-1.78.38c-2,.8-4.37,2.57-7.29,5.41-3.21,3.14-4.75,5.61-4.72,7.53a1.66,1.66,0,0,0,1.94,1.75,1.63,1.63,0,0,0,.55-.11A26,26,0,0,0,92,43.09a54.1,54.1,0,0,0,5-5.28C95.65,41.73,95,44.4,95,46a3.79,3.79,0,0,0,.62,2.11,1.19,1.19,0,0,0,.91.45A1,1,0,0,0,97,48.4a1.07,1.07,0,0,0,.54-.53.71.71,0,0,0,0-.57.62.62,0,0,0-.44-.32l-.5-.08s0-.06-.06,0c-.08-2.75,1.06-6.47,3.49-11.37.08-.16.17-.31.26-.46a4.69,4.69,0,0,0,.5-1.06A1.53,1.53,0,0,0,100.75,32.61Zm-4.08,3.66a48.27,48.27,0,0,1-9.86,9,.91.91,0,0,1-.41.14c-.09,0-.25,0-.26-.45a2,2,0,0,1,.16-.71,18.29,18.29,0,0,1,3.93-5.56c2.13-2.16,3.62-3.26,4.84-3.56A4.16,4.16,0,0,1,96,35h0c1,0,1,.34,1,.47A1.45,1.45,0,0,1,96.67,36.27Z"></path></svg> 